# xmcd
# 
# Track frame offsets:
#     150
#     19866
#     42417
#     60971
#     79399
#     97737
#     109975
#     133089
#     153704
#     173933
#     197986
#     198512
#     199037
#     199563
#     200089
#     200614
#     201139
#     201665
#     202190
#     202716
#     203242
#     203768
#     204293
#     204819
#     205344
#     205869
#     206394
#     206920
#     207445
#     207970
#     208495
#     209020
#     209546
#     210072
#     210597
#     211123
#     211650
# 
# Disc length: 3109
# 
# Revision: 1
# Processed by: cddbd v1.5.2PL0 Copyright (c) Steve Scherf et al.
# Submitted via: fre:ac v1.1beta1pre5
# 
DISCID=600c2325
DTITLE=나얼 - Principle Of My Soul
DYEAR=2012
DGENRE=R&B
TTITLE0=Soul Fever
TTITLE1=기억리듬
TTITLE2=You and Me
TTITLE3=My Girl
TTITLE4=Missing You
TTITLE5=Love Dawn
TTITLE6=바람기억
TTITLE7=이별 시작
TTITLE8=여전히 난
TTITLE9=Stone of Zion
TTITLE10=
TTITLE11=
TTITLE12=
TTITLE13=
TTITLE14=
TTITLE15=
TTITLE16=
TTITLE17=
TTITLE18=
TTITLE19=
TTITLE20=
TTITLE21=
TTITLE22=
TTITLE23=
TTITLE24=
TTITLE25=
TTITLE26=
TTITLE27=
TTITLE28=
TTITLE29=
TTITLE30=
TTITLE31=
TTITLE32=
TTITLE33=
TTITLE34=
TTITLE35=
TTITLE36=Yu Bwana (Bonus Track)
EXTD=
EXTT0=
EXTT1=
EXTT2=
EXTT3=
EXTT4=
EXTT5=
EXTT6=
EXTT7=
EXTT8=
EXTT9=
EXTT10=
EXTT11=
EXTT12=
EXTT13=
EXTT14=
EXTT15=
EXTT16=
EXTT17=
EXTT18=
EXTT19=
EXTT20=
EXTT21=
EXTT22=
EXTT23=
EXTT24=
EXTT25=
EXTT26=
EXTT27=
EXTT28=
EXTT29=
EXTT30=
EXTT31=
EXTT32=
EXTT33=
EXTT34=
EXTT35=
EXTT36=
PLAYORDER=
